<svg height="32" viewBox="0 0 32 32" width="32" xmlns="http://www.w3.org/2000/svg"><path d="m24.806931 13.833731c-.197127 0-.857506.0068-1.043618.02031l-3.762819.115084a.10610109.12388349 0 0 1 -.09799-.06092l-7.51288-10.66482a.52180863.60926306 0 0 0 -.386138-.240997h-1.559048l4.232448 10.899039a.13625004.15908536 0 0 1 -.131032.226781l-7.0554326.121853a.46730863.54562892 0 0 1 -.38266-.209857l-2.145213-3.046316c-.173937-.264014-.499776-.406174-.783293-.406174h-1.093478c-.07479 0-.06377.08191-.04348.1645l1.150297 4.834841a.94505342 1.103443 0 0 1 0 .805581l-1.151458 4.819948c-.0342.132007-.03014.203087.102621.203087h1.038979c.471947 0 .536305-.07175.777496-.426484l2.185798-3.093703a.47484586.55442938 0 0 1 .38266-.209856l6.9968726.182779a.15654259.18277892 0 0 1 .14089.253183l-4.222014 10.876022h1.544554a.52180863.60926306 0 0 0 .385558-.240321l7.528539-10.658718c.02261-.04062.115958-.06093.155963-.06093l3.704842.115084c.191329.01354.84591.02031 1.043617.02031 2.566719 0 4.190123-.823859 4.190123-2.173038s-1.616447-2.166269-4.190704-2.166268z" fill="none" stroke="#f25022" stroke-linecap="round" stroke-linejoin="round" stroke-width="2.00478"/></svg>