<svg height="32" viewBox="0 0 32 32" width="32" xmlns="http://www.w3.org/2000/svg"><path d="m24.614817 11.878158a2.0055737 2.0052998 0 0 1 -2.827172 0l-1.660065-1.659839a2.0049489 2.0046751 0 0 1 0-2.8274101l3.757483-3.758844a.06247893.0624704 0 0 0 -.018744-.1024514c-2.425432-1.0395075-5.569996-.5097585-7.566823 1.4724273-1.910606 1.8959767-2.019319 4.7477504-1.319555 7.2365712a1.9949522 1.9946799 0 0 1 -.566059 2.00405l-10.4089897 9.504872a3.0096101 3.0091992 0 1 0 4.2485672 4.247987l9.6130085-10.432557a1.9949522 1.9946799 0 0 1 1.974334-.570355c2.470417.661562 5.281969.537246 7.167583-1.323747 2.02994-1.999053 2.467917-5.532379 1.483874-7.5545458a.06247893.0624704 0 0 0 -.09997-.016242z" fill="none" stroke="#f25022" stroke-linecap="round" stroke-miterlimit="10" stroke-width="1.99919"/><ellipse cx="6.004218" cy="25.996468" fill="#f25022" rx=".999663" ry=".999526"/></svg>