<svg height="32" viewBox="0 0 32 32" width="32" xmlns="http://www.w3.org/2000/svg"><path d="m29.510639 15.066839-1.755509-.285453a.5384996.54371997 0 0 1 -.444262-.463521c-.03366-.217488-.06731-.435656-.114431-.646347a.5438846.54915717 0 0 1 .262518-.585859l1.554245-.871311a.54186522.54711822 0 0 0 .262518-.674213l-.26925-.747615a.53446085.53964207 0 0 0 -.632737-.339825l-1.742719.339825a.5384996.54371997 0 0 1 -.578214-.279336q-.151453-.285453-.3231-.5715846a.54926959.55459437 0 0 1 .04712-.647027l1.163832-1.355222a.5384996.54371997 0 0 0 .02019-.721789l-.50417-.611685a.53042211.53556417 0 0 0 -.706781-.102627l-1.527316.926363a.5384996.54371997 0 0 1 -.632064-.06117c-.16155-.143404-.329831-.286131-.498112-.422741a.5384996.54371997 0 0 1 -.168282-.619161l.632738-1.682133a.5384996.54371997 0 0 0 -.218766-.689845l-.686587-.401673a.5384996.54371997 0 0 0 -.699376.150202l-1.120079 1.416391a.48128402.48594972 0 0 1 -.572156.169913s-.37695-.15632-.659662-.252151a.5384996.54371997 0 0 1 -.368199-.52333l.02693-1.797674a.54321147.54847752 0 0 0 -.444263-.572266l-.780151-.13593a.54321147.54847752 0 0 0 -.612548.381284l-.578887 1.702523a.5384996.54371997 0 0 1 -.524364.367691h-.659662a.54321147.54847752 0 0 1 -.524364-.367691l-.578887-1.702523a.54321147.54847752 0 0 0 -.612544-.381284l-.780151.13593a.54321147.54847752 0 0 0 -.444262.572266l.02692 1.797674a.5384996.54371997 0 0 1 -.369545.52401c-.154819.06117-.491381.190982-.652931.25215-.188475.06797-.410606.01359-.59235-.197778l-1.111323-1.382408a.5384996.54371997 0 0 0 -.6993775-.147484l-.686587.401673a.53446085.53964207 0 0 0 -.222131.685767l.632737 1.682134a.54253835.54779787 0 0 1 -.168281.619161c-.168281.13593-.336562.279336-.498112.422742a.5384996.54371997 0 0 1 -.632064.06117l-1.505106-.940635a.5384996.54371997 0 0 0 -.706781.102627l-.50417.611685a.5384996.54371997 0 0 0 .02019.721788l1.163833 1.355222a.5384996.54371997 0 0 1 .04712.647027q-.171646.2718596-.323099.5715856a.54590397.55119612 0 0 1 -.578214.279336l-1.74272-.339825a.5384996.54371997 0 0 0 -.632737.339825l-.269249.747615a.54186522.54711822 0 0 0 .262518.674213l1.552226.87199a.53446085.53964207 0 0 1 .262519.585859c-.04039.217488-.08077.428859-.114431.646347a.5438846.54915717 0 0 1 -.444263.463521l-1.755508.285453a.54455772.54983682 0 0 0 -.477919.538283v.79655a.52907586.53420487 0 0 0 .477919.538282l1.755508.285453a.5384996.54371997 0 0 1 .444263.463522c.03366.217488.06731.435655.114431.646347a.5438846.54915717 0 0 1 -.262519.585858l-1.554244.872671a.54186522.54711822 0 0 0 -.262519.674212l.26925.747615a.53446085.53964207 0 0 0 .632737.339825l1.742719-.339825a.5384996.54371997 0 0 1 .578214.279336q.151453.285453.3231.571586a.54926959.55459437 0 0 1 -.04712.647027l-1.163832 1.356581a.5384996.54371997 0 0 0 -.02019.721788l.504171.611685a.53042211.53556417 0 0 0 .70678.102628l1.52732-.926363a.5384996.54371997 0 0 1 .632064.06117c.16155.143406.329831.286133.498112.422742a.5384996.54371997 0 0 1 .168281.619162l-.632737 1.682133a.5384996.54371997 0 0 0 .222131.687806l.686587.401673a.5384996.54371997 0 0 0 .6993765-.150203l1.130176-1.402797c.141357-.176709.370219-.251471.551963-.176709.228862.09515.383681.149523.666393.245354a.5384996.54371997 0 0 1 .369542.52401l-.02692 1.797674a.54321147.54847752 0 0 0 .444262.572265l.780152.13593a.54321147.54847752 0 0 0 .612543-.381284l.578887-1.699124a.5384996.54371997 0 0 1 .524364-.367691h.659662a.54321147.54847752 0 0 1 .524364.367691l.578887 1.699124a.54321147.54847752 0 0 0 .612543.381284l.780152-.13593a.54321147.54847752 0 0 0 .444262-.572265l-.02693-1.797674a.5384996.54371997 0 0 1 .369545-.52401c.282712-.09583.471187-.170593.6462-.238558.175012-.06797.390412-.06797.558693.142727l1.144312 1.423187a.5384996.54371997 0 0 0 .702069.148164l.686587-.401673a.53378773.53896242 0 0 0 .222131-.687806l-.632737-1.682134a.5438846.54915717 0 0 1 .168281-.619841c.168281-.13593.336562-.278656.498112-.422062a.5384996.54371997 0 0 1 .632064-.06117l1.521934.929082a.5384996.54371997 0 0 0 .706781-.102627l.50417-.611685a.5384996.54371997 0 0 0 -.02019-.721792l-1.163833-1.355222a.5384996.54371997 0 0 1 -.04712-.647026q.171646-.275259.323099-.571586a.54590397.55119612 0 0 1 .578214-.279336l1.74272.339825a.5384996.54371997 0 0 0 .632737-.339825l.269249-.747615a.54186522.54711822 0 0 0 -.262518-.674213l-1.554245-.871311a.53446085.53964207 0 0 1 -.262518-.585858c.04039-.217488.08078-.42886.114431-.646348a.5438846.54915717 0 0 1 .444262-.463521l1.755509-.285453a.54455772.54983682 0 0 0 .477918-.538283v-.797909a.55532771.56071122 0 0 0 -.489362-.525369zm-13.509609-8.8537996a9.6808766 9.7747258 0 0 1 9.382009 7.3483746 1.0769992 1.0874399 0 0 1 -1.045362 1.351144h-7.083962a1.0769992 1.0874399 0 0 1 -.936316-.549836l-3.506979-6.2330696a1.0769992 1.0874399 0 0 1 .663027-1.589702 9.8908914 9.9867766 0 0 1 2.527583-.326911zm-9.6929935 9.7869586a9.6929928 9.7869595 0 0 1 2.938189-7.0282596 1.0769992 1.0874399 0 0 1 1.6942545.235839l3.516402 6.2487006a1.0769992 1.0874399 0 0 1 0 1.078605l-3.545346 6.23239a1.0769992 1.0874399 0 0 1 -1.6949285.228362 9.6889541 9.7828816 0 0 1 -2.908571-6.995637zm9.6929935 9.78696a9.8881989 9.984058 0 0 1 -2.570662-.336427 1.0769992 1.0874399 0 0 1 -.65697-1.593099l3.539289-6.222196a1.0769992 1.0874399 0 0 1 .934296-.54372h7.09406a1.0769992 1.0874399 0 0 1 1.044689 1.351144 9.6822228 9.7760851 0 0 1 -9.384702 7.344298z" fill="#f25022"/></svg>