<svg height="32" viewBox="0 0 32 32" width="32" xmlns="http://www.w3.org/2000/svg"><g transform="matrix(.06730787 0 0 .06730758 -1.230815 -1.230741)"><path d="m448 256c0-106-86-192-192-192s-192 86-192 192 86 192 192 192 192-86 192-192z" fill="none" stroke="#4285f4" stroke-miterlimit="10" stroke-width="32"/><path d="m350.67 150.93-117.2 46.88a64 64 0 0 0 -35.66 35.66l-46.88 117.2a8 8 0 0 0 10.4 10.4l117.2-46.88a64 64 0 0 0 35.66-35.66l46.88-117.2a8 8 0 0 0 -10.4-10.4zm-94.67 129.07a24 24 0 1 1 24-24 24 24 0 0 1 -24 24z" fill="#f25022"/></g></svg>