<svg viewBox="0 0 32 32" xmlns="http://www.w3.org/2000/svg"><g transform="translate(69.187894 -10.215492)"><path d="m-44.754547 18.138438-1.373773 19.88542a1.533336 2.3077299 0 0 1 -1.522795 2.038014h-11.073081a1.533336 2.3077299 0 0 1 -1.522795-2.038014l-1.374252-19.88542" fill="none" stroke="#db3236" stroke-linecap="round" stroke-linejoin="round" stroke-width="1.8811"/><rect fill="#db3236" height="5.769325" rx=".766668" ry="1.153865" stroke="#db3236" stroke-linecap="round" stroke-linejoin="round" stroke-width="1.8811" width="21.466703" x="-63.921246" y="12.369113"/><path d="m3.0831416 8.16216 1.00157.81437-.94267 1.87925c-.47132.86655.33838 1.71069.85428 2.00455.50787.28926 1.29613.32365 2.03258.31323l1.32559-2.25513 1.00156.56378-1.73801-3.35134-3.5349.0313zm.14727 4.60026 2.1504 4.13437c.43205.5742 1.24706.70993 2.09151.68906h2.26823v-3.91511l-4.30081-.0313c-.66768.0417-1.54162-.10445-2.20933-.87701zm13.5293104-7.61917-1.16999.51679-1.12244-1.76903c-.49976-.84909-1.60182-.52138-2.09887-.19428-.48931.32202-.90039 1.02281-1.24865 1.69816l1.25265 2.29983-.9594.63827 3.65925.0429 1.68745-3.23261zm-3.9377-2.09616-4.5172904-.0471c-.69204.11484-1.20124.79082-1.59309 1.56958l-1.09966 2.06449 3.29048 1.8981 2.1114004-3.89934c.2886-.62801.83513-1.35255 1.80816-1.58571zm.1965 15.95288.13286-1.31547 2.03098-.16392c.95589-.0433 1.21477-1.20517 1.18083-1.81617-.0334-.60149-.42311-1.31539-.82188-1.95978l-2.54018.0252-.0714-1.18267-1.81007 3.30977 1.8988 3.10308zm3.67077-2.56773 2.22961-4.08864c.23901-.68558-.0822-1.47678-.5468-2.21098l-1.20198-2.00178-3.19051 2.0747 2.25357 3.81219c.3879.56712.73187 1.41581.45611 2.41451z" fill="#f25022" transform="matrix(.55205832 0 0 .70767538 -59.228292 21.249817)"/></g></svg>