<svg height="32" viewBox="0 0 32 32" width="32" xmlns="http://www.w3.org/2000/svg"><path d="m13.631257 10.448778c0 .812566 0 1.600131.256249 2.337691-2.693742 3.16276-9.806221 11.519696-10.468719 12.157248a1.2606213 1.2607285 0 0 0 -.418748.937577c0 .531294.324998 1.043836.599998 1.331359.412498.431286 2.174993 2.06267 2.499993 1.750144.962496-.937576 1.156245-1.187598 1.549995-1.575129.593748-.581298-.06251-1.768895.143749-2.250185.206249-.48129.425-.575047.781247-.650053.356249-.07501.987499.181265 1.481246.187516.518748.0063.799999-.212519 1.187497-.575048.312499-.287524.537499-.556295.543749-.97508.01246-.562546-.799998-1.306357-.193751-1.900157.60625-.593798 1.481247.387533 2.124995.312527.643747-.07501 1.424995-.96883 1.506244-1.350111.08125-.381282-.731246-1.362612-.606247-1.918908.04376-.187515.424999-.625051.712499-.687557.287498-.06251 1.562493.431287 1.849993.368781.35-.07501.756248-.443787 1.087497-.650053.968747.418784 1.849995.587548 2.981241.587548 4.281238 0 7.749977-3.337774 7.749977-7.450612s-3.468739-7.436235-7.749977-7.436235c-4.281237 0-7.618727 3.335898-7.618727 7.448737zm11.368716-1.448245a1.9999941 2.0001641 0 1 1 -1.999994-2.000163 1.9999941 2.0001641 0 0 1 1.999994 2.000163z" fill="none" stroke="#f25022" stroke-linejoin="round" stroke-width="2.00008"/></svg>