<svg height="32" viewBox="0 0 32 32" width="32" xmlns="http://www.w3.org/2000/svg"><g fill="none" stroke-linecap="round" stroke-linejoin="round" stroke-width="2.15049"><path d="m28.029633 8.0571994-10.051164-4.5702503c-1.089504-.4966204-2.872818-.4966204-3.962322 0l-10.0444339 4.5702503c-1.1843899.5368869-1.1843899 1.4153682 0 1.9522556l9.9596419 4.529983c1.136611.516754 3.007409.516754 4.144019 0l9.959642-4.529983c1.179007-.5368874 1.179007-1.4160398-.0054-1.9522556zm-18.4926333 11.4672346-5.5652866 2.490484c-1.1843899.536887-1.1843899 1.416039 0 1.952926l9.9596419 4.529984c1.136611.516083 3.007409.516083 4.144019 0l9.959642-4.529984c1.18439-.536887 1.18439-1.416039 0-1.952926l-5.379552-2.581755" stroke="#0fbb58"/><path d="m9.5369997 12.542219-5.5720161 2.49384c-1.1843899.536887-1.1843899 1.416039 0 1.952926l9.9596424 4.529313c1.13661.516753 3.007408.516753 4.144019 0l9.959642-4.529313c1.191119-.536887 1.191119-1.416039.0067-1.952926l-5.577399-2.49384" stroke="#6cc24a"/></g></svg>