<svg height="32" viewBox="0 0 32 32" width="32" xmlns="http://www.w3.org/2000/svg"><g stroke="#f25022" stroke-width="32" transform="matrix(.06251532 0 0 .06251628 -.000258 -.007832)"><path d="m421.83 293.82a144.0023 144.0023 0 0 0 -203.65-203.65m135.76 135.77a48 48 0 0 0 -67.88-67.88" fill="none" stroke-miterlimit="10"/><path d="m192 464v-48m-101.82 5.82 33.94-33.94m-76.12-67.88h48" stroke-linecap="round" stroke-miterlimit="10"/><path d="m286.06 158.06-113.14 113.13a32 32 0 0 1 -45.25 0l-22.67-22.62a32 32 0 0 1 0-45.26l113.18-113.14m203.65 203.65-113.14 113.18a32 32 0 0 1 -45.26 0l-22.62-22.63a32 32 0 0 1 0-45.26l113.13-113.17m-214.34-55.96 67.88 67.89m67.88 67.88 67.89 67.88" fill="none" stroke-linejoin="round"/></g></svg>