<svg enable-background="new" height="32" width="32" xmlns="http://www.w3.org/2000/svg"><g transform="translate(-28.726136 11.715548)"><path d="m35.095735-4.3309586a12.912635 12.913097 0 0 0 -3.291931 8.4808458c-.07942 7.1582378 5.764749 13.0443488 12.922731 13.0578098 7.147885.01346 12.922731-5.777071 12.922731-12.9231932 0-7.0364097-5.623407-12.7623268-12.619855-12.9231936a.29345368.29346419 0 0 0 -.302876.2941373v5.6289931" fill="none" stroke="#4285f4" stroke-linecap="round" stroke-linejoin="round" stroke-width="2.15383"/><path d="m43.204076 5.8076906-5.317166-7.6058379a.54719689.54721648 0 0 1 .761903-.7619299l7.605566 5.3173557a2.1874414 2.1875198 0 0 1 -2.507145 3.58484 2.2352286 2.2353086 0 0 1 -.543158-.5344279z" fill="#f25022"/></g></svg>