<svg height="32" viewBox="0 0 32 32" width="32" xmlns="http://www.w3.org/2000/svg"><path d="m16 25.023441v4.010419m0-16.041674v4.010418m0-14.036464v2.005209m9.310006 8.020837h-18.2342295a.93100065 1.0026046 0 0 1 -.658682-.293889l-3.451104-3.71653 3.451104-3.716529a.93100065 1.0026046 0 0 1 .658682-.293889h18.2342295a.93100065 1.0026046 0 0 1 .931001 1.002605v6.015628a.93100065 1.0026046 0 0 1 -.931001 1.002604zm-18.6200125 12.031255h18.2342295a.93100065 1.0026046 0 0 0 .658683-.293888l3.451103-3.71653-3.451103-3.71653a.93100065 1.0026046 0 0 0 -.658683-.293889h-18.2342295a.93100065 1.0026046 0 0 0 -.931001 1.002605v6.015628a.93100065 1.0026046 0 0 0 .931001 1.002604z" fill="none" stroke="#0fbb58" stroke-linecap="round" stroke-linejoin="round" stroke-width="1.93228"/></svg>